HIERARCHY
ROOT Hips
{
	OFFSET 0.000000 0.907666 0.000000
	CHANNELS 6 Xposition Yposition Zposition Zrotation Yrotation Xrotation 
	JOINT LeftUpperLeg
	{
		OFFSET 0.039746 -0.031645 -0.040236
		CHANNELS 3 Zrotation Yrotation Xrotation
		JOINT LeftLowerLeg
		{
			OFFSET 0.111294 -0.345770 0.131780
			CHANNELS 3 Zrotation Yrotation Xrotation
			JOINT LeftFoot
			{
				OFFSET -0.153061 -0.356025 -0.180057
				CHANNELS 3 Zrotation Yrotation Xrotation
				End Site #name: L_Foot
				{
					OFFSET 0.042624 -0.117101 0.061326
				}
			}
		}
	}
	JOINT RightUpperLeg
	{
		OFFSET -0.058531 -0.043485 -0.002233
		CHANNELS 3 Zrotation Yrotation Xrotation
		JOINT RightLowerLeg
		{
			OFFSET 0.067446 -0.363948 0.149217
			CHANNELS 3 Zrotation Yrotation Xrotation
			JOINT RightFoot
			{
				OFFSET 0.099331 -0.401317 -0.059868
				CHANNELS 3 Zrotation Yrotation Xrotation
				End Site #name: R_Foot
				{
					OFFSET -0.021771 -0.044901 0.119750
				}
			}
		}
	}
	JOINT Spine
	{
		OFFSET -0.012746 0.177669 0.008786
		CHANNELS 3 Zrotation Yrotation Xrotation
		JOINT Chest
		{
			OFFSET 0.052611 -0.023413 0.099572
			CHANNELS 3 Zrotation Yrotation Xrotation
			JOINT UpperChest
			{
				OFFSET 0.017786 -0.047749 0.053776
				CHANNELS 3 Zrotation Yrotation Xrotation
				JOINT Neck
				{
					OFFSET 0.080456 0.042630 0.161630
					CHANNELS 3 Zrotation Yrotation Xrotation
					End Site #name: Head
					{
						OFFSET 0.016502 -0.035412 0.074798
					}
				}
				JOINT LeftShoulder
				{
					OFFSET 0.100736 0.018260 0.052347
					CHANNELS 3 Zrotation Yrotation Xrotation
					JOINT LeftUpperArm
					{
						OFFSET 0.089842 -0.102433 0.013361
						CHANNELS 3 Zrotation Yrotation Xrotation
						JOINT LeftLowerArm
						{
							OFFSET 0.057214 -0.221430 -0.009773
							CHANNELS 3 Zrotation Yrotation Xrotation
							End Site #name: L_Wrist
							{
								OFFSET -0.009018 -0.280569 0.040473
							}
						}
					}
				}
				JOINT RightShoulder
				{
					OFFSET -0.018945 0.008766 0.115504
					CHANNELS 3 Zrotation Yrotation Xrotation
					JOINT RightUpperArm
					{
						OFFSET -0.066178 -0.103390 0.061031
						CHANNELS 3 Zrotation Yrotation Xrotation
						JOINT RightLowerArm
						{
							OFFSET -0.082445 -0.215283 0.018196
							CHANNELS 3 Zrotation Yrotation Xrotation
							End Site #name: R_Wrist
							{
								OFFSET -0.023016 -0.287172 0.021073
							}
						}
					}
				}
			}
		}
	}
}
MOTION
Frames: 13
Frame Time: 0.041667
0.000000 0.907666 0.000000 0.002552 0.003752 0.000056 0.000000 0.000000 0.000000 -0.006373 -0.001934 0.011996 0.008728 -0.004806 -0.025765 0.000000 0.000000 0.000000 0.000000 0.000000 0.000000 0.000000 0.000000 0.000000 0.000000 0.000000 0.000000 0.000000 0.000000 0.000000 0.000082 -0.001581 0.000673 -0.005672 -0.012877 -0.001924 0.000000 0.000000 0.000000 -0.005777 -0.000469 -0.002802 0.000000 0.000000 0.000000 0.000000 0.000000 0.000000 0.000000 0.000000 0.000000 0.000000 0.000000 0.000000 
0.003892 0.898522 0.009872 0.593875 -0.995185 0.431420 3.786042 -0.191439 -5.650566 -0.711619 -0.155414 1.215170 1.004282 -0.448959 -2.732198 -0.234114 -0.369595 -1.449295 -0.996975 1.115073 3.739888 -0.692639 -0.319263 -3.238690 -1.586886 1.663581 3.800542 0.540110 -0.093664 -1.904132 -0.417442 -0.278819 0.816572 -0.102199 0.212723 0.925545 -0.026900 -1.987720 -2.255327 1.700455 -0.914849 -3.466671 0.325001 -0.012523 1.699014 3.171467 2.750771 -1.217024 2.733822 1.521176 -3.127730 -0.166656 -0.001180 -0.140411 
0.009920 0.886935 0.021469 1.190447 -2.153647 0.720051 6.312455 -0.384493 -10.416906 1.168927 -0.146582 -1.010166 0.499808 -1.311282 -4.306119 -0.674474 -0.796014 -2.672142 -2.061203 2.302161 7.381615 -1.296833 -0.449152 -6.486746 -2.914040 2.894506 6.977436 0.802255 -0.303798 -3.277796 -0.621866 -0.159649 1.154200 -0.264916 0.157481 1.540242 0.227515 -3.679282 -4.224947 2.435024 -1.672126 -6.648033 1.396524 0.038531 3.670591 5.689261 5.193908 -2.331779 5.684704 2.895919 -5.425758 -1.492399 -0.061296 -0.717875 
0.018520 0.870659 0.035166 1.738585 -3.571219 0.881334 7.690564 -0.705737 -14.154579 5.927792 0.171281 -6.580067 -2.382271 -3.093156 -4.566606 -1.211981 -1.294129 -3.961652 -3.237284 3.830177 11.789568 -1.970421 -0.644484 -10.148104 -4.135058 3.585037 9.692132 0.829963 -0.610607 -4.165158 -0.598794 0.360129 0.986167 -0.334892 0.245780 2.051560 0.665422 -5.223707 -6.082491 2.443480 -2.345401 -9.509154 2.857694 0.087056 5.683520 7.799964 7.461557 -3.393280 8.902414 4.010702 -6.760166 -3.143950 -0.147029 -1.585301 
0.031251 0.853441 0.051570 2.108694 -5.100803 0.977356 7.764588 -1.125253 -15.857575 11.912398 1.514685 -14.131399 -8.183376 -6.076619 -3.519047 -1.929327 -1.869674 -5.133945 -4.133122 5.398852 16.193065 -2.457566 -0.444927 -13.415143 -5.129685 3.189217 11.326919 0.806614 -0.802915 -4.587074 -0.534604 1.393866 0.563297 -0.144896 0.613624 2.016090 1.167882 -6.070895 -7.181213 1.722613 -2.803774 -11.269869 4.185409 0.129764 6.882733 9.272991 8.912908 -3.884833 11.475101 4.507580 -6.901041 -4.060979 -0.176901 -2.707293 
0.049222 0.835992 0.071541 2.224392 -6.645512 1.146941 7.080992 -1.507203 -15.894315 17.025642 4.480394 -22.686434 -15.114820 -9.994450 -2.901122 -2.859230 -2.581940 -6.361743 -4.821017 7.052161 20.747152 -2.885042 -0.006726 -16.615532 -5.991442 1.722404 12.044105 0.882451 -0.866506 -4.987001 -0.550378 2.809859 0.266212 -0.034350 0.619826 1.521899 1.451600 -6.135208 -7.332883 0.767744 -3.119092 -12.294287 4.858691 0.148576 7.386409 10.297236 9.589152 -3.798083 13.286088 4.443974 -6.200129 -4.057864 -0.118472 -4.009589 
0.073555 0.819383 0.095918 2.367676 -8.327343 1.351552 5.815736 -2.137300 -15.685228 19.960661 5.980433 -26.656233 -21.065911 -15.033447 -4.744524 -4.943591 -3.803890 -7.205463 -6.116084 9.115187 25.466551 -3.204829 0.938451 -19.650680 -6.761698 -0.584217 12.104816 0.848116 -1.169796 -5.646808 -0.603770 4.459705 0.164191 -0.146172 0.065197 0.802247 1.303390 -5.931709 -7.058663 0.100271 -3.019107 -11.724493 4.162546 0.108086 7.171852 10.978004 9.500672 -3.102298 14.462832 3.697671 -4.465893 -3.492298 0.001646 -5.191351 
0.104326 0.811492 0.124368 2.362065 -10.016264 1.689052 4.174379 -3.338587 -16.643328 21.159565 3.995041 -23.854557 -20.805490 -15.909651 -6.317147 -7.263803 -4.825157 -6.716613 -7.891561 10.377750 26.913617 -3.478023 1.609029 -21.909108 -7.199839 -3.387946 11.355585 0.390909 -1.470226 -4.983216 -0.365625 5.661370 -0.327240 -0.751361 -1.268944 0.649139 0.883632 -5.490592 -6.442541 -0.031455 -2.676126 -10.365730 2.396666 0.030653 5.929874 11.155666 8.415563 -1.661085 14.227730 2.938704 -3.117499 -2.353825 0.184755 -5.985790 
0.138167 0.810202 0.155328 2.700009 -11.886348 2.169409 2.358454 -4.791723 -17.900335 21.118297 1.452385 -19.706325 -18.311584 -15.208482 -7.933397 -9.997496 -5.902075 -5.786437 -10.522642 11.271368 26.273801 -3.448512 2.797591 -22.849231 -7.539676 -6.424627 10.408591 -0.181763 -1.820454 -4.117971 -0.210972 6.881651 -0.843103 -1.387407 -2.816721 0.243847 0.423974 -5.129659 -5.914765 -0.070071 -2.222620 -8.605624 0.031962 -0.138114 4.423808 10.906930 7.254924 -0.469436 12.814760 2.098565 -1.853439 -0.734164 0.383701 -5.911706 
0.173290 0.814698 0.187132 2.962238 -13.745283 2.658192 0.391292 -6.240646 -18.706324 20.771981 -0.525631 -16.358072 -15.358898 -14.022039 -9.404201 -13.061394 -6.902181 -4.267444 -12.721863 11.176978 23.738650 -3.081560 4.389318 -22.329690 -7.791433 -9.436194 9.421711 -0.592601 -2.029981 -3.416535 -0.114811 7.830683 -1.210439 -1.922779 -4.185172 -0.165366 0.024283 -4.766806 -5.406393 -0.346462 -1.732123 -6.689436 -2.059013 -0.335083 2.779696 10.409630 6.159366 0.466495 10.671091 1.348454 -0.829012 1.127812 0.565017 -5.328827 
0.208095 0.822818 0.218423 2.930645 -15.402041 3.173766 -1.755866 -7.521357 -18.675670 20.717206 -1.771704 -14.364696 -12.702957 -12.762822 -10.491066 -16.123968 -7.656798 -2.291479 -13.794356 10.051877 19.994519 -2.448290 6.091524 -20.733690 -7.963091 -12.238127 8.480846 -0.886280 -2.121058 -2.784512 -0.019323 8.391654 -1.505897 -2.453887 -5.318666 -0.145938 -0.248303 -4.544899 -5.091757 -0.687833 -1.317824 -5.098189 -3.577085 -0.515976 1.215788 9.823347 5.310903 1.049321 8.552593 0.915155 -0.359386 2.795384 0.685692 -4.561971 
0.241500 0.832502 0.248524 2.637815 -16.869348 3.651752 -4.129214 -8.637600 -17.900737 21.181324 -2.588490 -13.395447 -10.411121 -11.607607 -11.360377 -19.202813 -8.161440 0.074569 -13.620649 8.246582 15.720739 -1.638820 7.608804 -18.428323 -8.151443 -14.872247 7.701877 -1.083445 -2.141076 -2.266608 0.095824 8.709935 -1.805645 -2.928792 -6.200377 0.090884 -0.442557 -4.517294 -5.015018 -0.979273 -1.008012 -3.934164 -4.605814 -0.664476 -0.065104 9.192991 4.676292 1.343194 6.822822 0.790090 -0.439370 4.346574 0.769159 -3.774082 
0.272765 0.842499 0.277064 2.126078 -18.169081 4.060188 -6.621782 -9.533058 -16.532304 22.106027 -3.124506 -13.176746 -8.405738 -10.562152 -12.095129 -22.139671 -8.427329 2.566309 -12.315523 6.129267 11.319946 -0.699402 9.033454 -15.773832 -8.424144 -17.422323 7.136387 -1.201814 -2.081247 -1.783981 0.214092 8.842270 -2.122405 -3.358089 -6.793907 0.621984 -0.677985 -4.675287 -5.135637 -1.117026 -0.826523 -3.261661 -4.899461 -0.717812 -1.006013 8.659321 4.326624 1.358064 5.668860 0.898697 -0.928434 5.541097 0.813697 -3.126672 
